<?xml version="1.0" encoding="UTF-8"?>
<svg width="40px" height="40px" viewBox="0 0 40 40" version="1.1" xmlns="http://www.w3.org/2000/svg" xmlns:xlink="http://www.w3.org/1999/xlink">
    <!-- Generator: Sketch 58 (84663) - https://sketch.com -->
    <title>Icons / Video Recording</title>
    <desc>Created with Sketch.</desc>
    <g id="Icons-/-Video-Recording" stroke="none" stroke-width="1" fill="none" fill-rule="evenodd">
        <path d="M30.2,15.2828427 C30.2530433,15.2828427 30.3039141,15.3039141 30.3414214,15.3414214 L31.7071068,16.7071068 C31.8946432,16.8946432 32,17.1489971 32,17.4142136 L32,32 C32,33.0543618 31.1841222,33.9181651 30.1492623,33.9945143 L30,34 L14,34 C12.9456382,34 12.0818349,33.1841222 12.0054857,32.1492623 L12,32 L30,32 L30,15.4828427 C30,15.3723858 30.0895431,15.2828427 30.2,15.2828427 Z M20.0857864,6 C20.6162194,6 21.1249272,6.21071368 21.5,6.58578644 L27.4142136,12.5 C27.7892863,12.8750728 28,13.3837806 28,13.9142136 L28,28 C28,29.1045695 27.1045695,30 26,30 L10,30 C8.8954305,30 8,29.1045695 8,28 L8,8 C8,6.8954305 8.8954305,6 10,6 L20.0857864,6 Z M19,8 L10,8 L10,28 L26,28 L26,15 L21,15 C19.9456382,15 19.0818349,14.1841222 19.0054857,13.1492623 L19,13 L19,8 Z M15.5005928,15.36 C15.5877094,15.36 15.6733179,15.3827346 15.7489563,15.4259565 L21.2476851,18.5680873 C21.4877281,18.7052547 21.5711252,19.0110441 21.4339578,19.2510871 C21.3896106,19.3286946 21.3252927,19.3930126 21.2476851,19.4373597 L15.7489563,22.5794905 C15.5089134,22.7166579 15.2031239,22.6332608 15.0659565,22.3932178 C15.0227346,22.3175794 15,22.2319709 15,22.1448543 L15,15.8605928 C15,15.584123 15.224123,15.36 15.5005928,15.36 Z M21,8.915 L21,13 L25.086,13 L21,8.915 Z" id="Combined-Shape" fill="#384156" fill-rule="nonzero"></path>
    </g>
</svg>