<?xml version="1.0" encoding="UTF-8"?>
<svg width="40px" height="40px" viewBox="0 0 40 40" version="1.1" xmlns="http://www.w3.org/2000/svg" xmlns:xlink="http://www.w3.org/1999/xlink">
    <!-- Generator: Sketch 58 (84663) - https://sketch.com -->
    <title>Icons / Add User Copy 6</title>
    <desc>Created with Sketch.</desc>
    <g id="Icons-/-Add-User-Copy-6" stroke="none" stroke-width="1" fill="none" fill-rule="evenodd">
        <path d="M11,10 L13,12 L6.5,12 C6.22385763,12 6,12.2238576 6,12.5 L6,28 L34,28 L34,12.5 C34,12.2238576 33.7761424,12 33.5,12 L27.25,12 L29.321,10 L33.5,10 C34.8807119,10 36,11.1192881 36,12.5 L36,29 C36,30.1045695 35.1045695,31 34,31 L6,31 C4.8954305,31 4,30.1045695 4,29 L4,28 L4,12.5 C4,11.1192881 5.11928813,10 6.5,10 L11,10 Z" id="Combined-Shape" fill="#384156" fill-rule="nonzero"></path>
        <g id="Group" transform="translate(11.153397, 4.000000)" fill="#384156">
            <path d="M7.43609209,9.35121553 L8.84660272,10.6436752 L10.2571133,9.35121553 C9.83052629,9.12363381 9.34890449,9 8.84660272,9 C8.34430095,9 7.86267916,9.12363381 7.43609209,9.35121553 Z" id="Combined-Shape" stroke="#384156" stroke-width="2"></path>
            <path d="M8.84660272,4 C11.1807873,4 13.2814867,4.99966894 14.7439246,6.5942305 L13.2702618,7.94640096 C12.1734051,6.75005602 10.5975964,6 8.84660272,6 C7.09560903,6 5.5198003,6.75005602 4.42294363,7.94640096 L2.9492808,6.5942305 C4.41171871,4.99966894 6.51241812,4 8.84660272,4 Z" id="Combined-Shape" fill-rule="nonzero"></path>
            <path d="M8.84660272,-2.66453526e-14 C12.3477239,-2.66453526e-14 15.4986484,1.49937002 17.6922929,3.89102659 L16.2184615,5.24301318 C14.3904054,3.24968024 11.7644433,2 8.84660272,2 C5.92924717,2 3.30367304,3.24926482 1.47565559,5.24201922 L0.000912569,3.89102659 C2.19455701,1.49937002 5.34548155,-2.66453526e-14 8.84660272,-2.66453526e-14 Z" id="Combined-Shape" fill-rule="nonzero"></path>
        </g>
        <g id="Group-2" transform="translate(9.000000, 17.000000)" fill="#384156">
            <path d="M3.5,0 L4.5,0 C4.77614237,-5.07265313e-17 5,0.223857625 5,0.5 L5,1.79289322 C5,1.92550146 4.94732158,2.05267842 4.85355339,2.14644661 L4.35355339,2.64644661 C4.15829124,2.84170876 3.84170876,2.84170876 3.64644661,2.64644661 L3.14644661,2.14644661 C3.05267842,2.05267842 3,1.92550146 3,1.79289322 L3,0.5 C3,0.223857625 3.22385763,5.07265313e-17 3.5,0 Z" id="Rectangle"></path>
            <path d="M3.5,4 L4.5,4 C4.77614237,4 5,4.22385763 5,4.5 L5,5.79289322 C5,5.92550146 4.94732158,6.05267842 4.85355339,6.14644661 L4.35355339,6.64644661 C4.15829124,6.84170876 3.84170876,6.84170876 3.64644661,6.64644661 L3.14644661,6.14644661 C3.05267842,6.05267842 3,5.92550146 3,5.79289322 L3,4.5 C3,4.22385763 3.22385763,4 3.5,4 Z" id="Rectangle-Copy-4" transform="translate(4.000000, 5.500000) scale(1, -1) translate(-4.000000, -5.500000) "></path>
            <path d="M5.5,2 L6.5,2 C6.77614237,2 7,2.22385763 7,2.5 L7,3.79289322 C7,3.92550146 6.94732158,4.05267842 6.85355339,4.14644661 L6.35355339,4.64644661 C6.15829124,4.84170876 5.84170876,4.84170876 5.64644661,4.64644661 L5.14644661,4.14644661 C5.05267842,4.05267842 5,3.92550146 5,3.79289322 L5,2.5 C5,2.22385763 5.22385763,2 5.5,2 Z" id="Rectangle-Copy-6" transform="translate(6.000000, 3.500000) rotate(-270.000000) translate(-6.000000, -3.500000) "></path>
            <path d="M1.5,2 L2.5,2 C2.77614237,2 3,2.22385763 3,2.5 L3,3.79289322 C3,3.92550146 2.94732158,4.05267842 2.85355339,4.14644661 L2.35355339,4.64644661 C2.15829124,4.84170876 1.84170876,4.84170876 1.64644661,4.64644661 L1.14644661,4.14644661 C1.05267842,4.05267842 1,3.92550146 1,3.79289322 L1,2.5 C1,2.22385763 1.22385763,2 1.5,2 Z" id="Rectangle-Copy-5" transform="translate(2.000000, 3.500000) scale(1, -1) rotate(-90.000000) translate(-2.000000, -3.500000) "></path>
        </g>
        <g id="Group-2-Copy" transform="translate(23.000000, 17.000000)" fill="#384156">
            <path d="M3.5,0 L4.5,0 C4.77614237,-5.07265313e-17 5,0.223857625 5,0.5 L5,1.79289322 C5,1.92550146 4.94732158,2.05267842 4.85355339,2.14644661 L4.35355339,2.64644661 C4.15829124,2.84170876 3.84170876,2.84170876 3.64644661,2.64644661 L3.14644661,2.14644661 C3.05267842,2.05267842 3,1.92550146 3,1.79289322 L3,0.5 C3,0.223857625 3.22385763,5.07265313e-17 3.5,0 Z" id="Rectangle"></path>
            <path d="M3.5,4 L4.5,4 C4.77614237,4 5,4.22385763 5,4.5 L5,5.79289322 C5,5.92550146 4.94732158,6.05267842 4.85355339,6.14644661 L4.35355339,6.64644661 C4.15829124,6.84170876 3.84170876,6.84170876 3.64644661,6.64644661 L3.14644661,6.14644661 C3.05267842,6.05267842 3,5.92550146 3,5.79289322 L3,4.5 C3,4.22385763 3.22385763,4 3.5,4 Z" id="Rectangle-Copy-4" transform="translate(4.000000, 5.500000) scale(1, -1) translate(-4.000000, -5.500000) "></path>
            <path d="M5.5,2 L6.5,2 C6.77614237,2 7,2.22385763 7,2.5 L7,3.79289322 C7,3.92550146 6.94732158,4.05267842 6.85355339,4.14644661 L6.35355339,4.64644661 C6.15829124,4.84170876 5.84170876,4.84170876 5.64644661,4.64644661 L5.14644661,4.14644661 C5.05267842,4.05267842 5,3.92550146 5,3.79289322 L5,2.5 C5,2.22385763 5.22385763,2 5.5,2 Z" id="Rectangle-Copy-6" transform="translate(6.000000, 3.500000) rotate(-270.000000) translate(-6.000000, -3.500000) "></path>
            <path d="M1.5,2 L2.5,2 C2.77614237,2 3,2.22385763 3,2.5 L3,3.79289322 C3,3.92550146 2.94732158,4.05267842 2.85355339,4.14644661 L2.35355339,4.64644661 C2.15829124,4.84170876 1.84170876,4.84170876 1.64644661,4.64644661 L1.14644661,4.14644661 C1.05267842,4.05267842 1,3.92550146 1,3.79289322 L1,2.5 C1,2.22385763 1.22385763,2 1.5,2 Z" id="Rectangle-Copy-5" transform="translate(2.000000, 3.500000) scale(1, -1) rotate(-90.000000) translate(-2.000000, -3.500000) "></path>
        </g>
        <path d="M15,32 L25,32 C26.1045695,32 27,32.8954305 27,34 L27,34 L27,34 L13,34 C13,32.8954305 13.8954305,32 15,32 Z" id="Rectangle" fill="#384156"></path>
        <rect id="Rectangle" fill="#384156" x="18" y="30" width="4" height="3"></rect>
    </g>
</svg>