<?xml version="1.0" encoding="UTF-8"?>
<svg width="40px" height="40px" viewBox="0 0 40 40" version="1.1" xmlns="http://www.w3.org/2000/svg" xmlns:xlink="http://www.w3.org/1999/xlink">
    <!-- Generator: Sketch 58 (84663) - https://sketch.com -->
    <title>Icons / Add User Copy 8</title>
    <desc>Created with Sketch.</desc>
    <g id="Icons-/-Add-User-Copy-8" stroke="none" stroke-width="1" fill="none" fill-rule="evenodd">
        <path d="M33.5,10 C34.8807119,10 36,11.1192881 36,12.5 L36,29 C36,30.1045695 35.1045695,31 34,31 L6,31 C4.8954305,31 4,30.1045695 4,29 L4,28 L4,12.5 C4,11.1192881 5.11928813,10 6.5,10 L33.5,10 Z M33.5,12 L6.5,12 C6.22385763,12 6,12.2238576 6,12.5 L6,28 L34,28 L34,12.5 C34,12.2238576 33.7761424,12 33.5,12 Z" id="Combined-Shape" fill="#384156" fill-rule="nonzero"></path>
        <path d="M15,32 L25,32 C26.1045695,32 27,32.8954305 27,34 L27,34 L27,34 L13,34 C13,32.8954305 13.8954305,32 15,32 Z" id="Rectangle" fill="#384156"></path>
        <rect id="Rectangle" fill="#384156" x="18" y="30" width="4" height="3"></rect>
        <path d="M17.7480695,16.9274683 L23.2402873,20.0658784 C23.480046,20.2028834 23.5633443,20.5083107 23.4263394,20.7480695 C23.3820447,20.8255851 23.3178029,20.8898269 23.2402873,20.9341216 L17.7480695,24.0725317 C17.5083107,24.2095367 17.2028834,24.1262384 17.0658784,23.8864796 C17.0227077,23.8109308 17,23.7254236 17,23.6384102 L17,17.3615898 C17,17.0854475 17.2238576,16.8615898 17.5,16.8615898 C17.5870135,16.8615898 17.6725206,16.8842975 17.7480695,16.9274683 Z" id="Rectangle" fill="#384156"></path>
    </g>
</svg>