<?xml version="1.0" encoding="UTF-8"?>
<svg width="40px" height="40px" viewBox="0 0 40 40" version="1.1" xmlns="http://www.w3.org/2000/svg" xmlns:xlink="http://www.w3.org/1999/xlink">
    <!-- Generator: Sketch 58 (84663) - https://sketch.com -->
    <title>Icons / Link</title>
    <desc>Created with Sketch.</desc>
    <g id="Icons-/-Link" stroke="none" stroke-width="1" fill="none" fill-rule="evenodd">
        <g id="Chain" transform="translate(20.000000, 20.000000) rotate(-45.000000) translate(-20.000000, -20.000000) translate(2.000000, 14.000000)" fill="#384156" fill-rule="nonzero">
            <path d="M15,0 C15.6708239,0 16.3159353,0.110088413 16.9182532,0.313184266 C16.2701804,0.778554076 15.7051777,1.35230832 15.2493371,2.00768401 C15.1679397,2.00260618 15.0842742,2 15,2 L6,2 C3.790861,2 2,3.790861 2,6 C2,8.209139 3.790861,10 6,10 L15,10 C17.209139,10 19,8.209139 19,6 C19,5.3616449 18.8504658,4.75821538 18.5845149,4.22282885 C18.9861157,3.67492767 19.5719747,3.26883561 20.2507543,3.09431909 C20.7284561,3.95630983 21,4.94644368 21,6 C21,9.3137085 18.3137085,12 15,12 L6,12 C2.6862915,12 0,9.3137085 0,6 C0,2.6862915 2.6862915,0 6,0 L15,0 Z" id="Combined-Shape"></path>
            <path d="M30,0 C33.3137085,0 36,2.6862915 36,6 C36,9.3137085 33.3137085,12 30,12 L21,12 C20.3291761,12 19.6840647,11.8899116 19.0817468,11.6868157 C19.7298196,11.2214459 20.2948223,10.6476917 20.7506629,9.99231599 C20.8320603,9.99739382 20.9157258,10 21,10 L30,10 C32.209139,10 34,8.209139 34,6 C34,3.790861 32.209139,2 30,2 L21,2 C18.790861,2 17,3.790861 17,6 C17,6.6383551 17.1495342,7.24178462 17.4154851,7.77717115 C17.0138843,8.32507233 16.4280253,8.73116439 15.7492457,8.90568091 C15.2715439,8.04369017 15,7.05355632 15,6 C15,2.6862915 17.6862915,0 21,0 L30,0 Z" id="Combined-Shape"></path>
        </g>
    </g>
</svg>