<?xml version="1.0" encoding="UTF-8"?>
<svg width="40px" height="40px" viewBox="0 0 40 40" version="1.1" xmlns="http://www.w3.org/2000/svg" xmlns:xlink="http://www.w3.org/1999/xlink">
    <!-- Generator: Sketch 58 (84663) - https://sketch.com -->
    <title>Icons / Add User</title>
    <desc>Created with Sketch.</desc>
    <g id="Icons-/-Add-User" stroke="none" stroke-width="1" fill="none" fill-rule="evenodd">
        <path d="M12,10 C12.4786229,10 12.9451635,10.0517308 13.3943354,10.1499063 C12.9372399,10.7139316 12.5508038,11.3373695 12.2485847,12.0069811 C12.1671785,12.0022937 12.0838571,12 12,12 C9.51471863,12 7.5,14.0147186 7.5,16.5 C7.5,18.1302085 8.36686125,19.5579507 9.66463114,20.3462446 C6.38561545,21.3454959 4,24.3941528 4,28 L7.15419444,28.0001824 C7.05237544,28.655516 7,29.3237166 7,30 L7,30 L2,30 L2,28 C2,24.7227941 3.59031617,21.7554785 6.10800889,19.9177902 L6.36284487,19.7378171 L6.21777367,19.4712092 C5.7548537,18.5709361 5.5,17.5571971 5.5,16.5 C5.5,12.9101491 8.41014913,10 12,10 Z" id="Combined-Shape" fill="#384156" fill-rule="nonzero"></path>
        <path d="M36.5788198,10 C37.0574427,10 37.5239832,10.0517308 37.9731552,10.1499063 C37.5160597,10.7139316 37.1296235,11.3373695 36.8274044,12.0069811 C36.7459983,12.0022937 36.6626769,12 36.5788198,12 C34.0935384,12 32.0788198,14.0147186 32.0788198,16.5 C32.0788198,18.1302085 32.945681,19.5579507 34.2434509,20.3462446 C30.9644352,21.3454959 28.5788198,24.3941528 28.5788198,28 L31.7330142,28.0001824 C31.6311952,28.655516 31.5788198,29.3237166 31.5788198,30 L31.5788198,30 L26.5788198,30 L26.5788198,28 C26.5788198,24.7227941 28.1691359,21.7554785 30.6868287,19.9177902 L30.9416646,19.7378171 L30.7965934,19.4712092 C30.3336735,18.5709361 30.0788198,17.5571971 30.0788198,16.5 C30.0788198,12.9101491 32.9889689,10 36.5788198,10 Z" id="Combined-Shape-Copy" fill="#384156" fill-rule="nonzero" transform="translate(32.275987, 20.000000) scale(-1, 1) translate(-32.275987, -20.000000) "></path>
        <path d="M13.6282195,19.45754 C12.9061092,18.2959278 12.5,16.9335919 12.5,15.5 C12.5,11.3578644 15.8578644,8 20,8 C24.1421356,8 27.5,11.3578644 27.5,15.5 C27.5,17.0441586 27.028837,18.5056788 26.199101,19.7230504 C29.6190171,21.7884811 31.8808204,25.4973821 31.9959698,29.692647 L32.0276391,32 L8,32 L8,30 C8,25.8087026 10.1668295,22.0474111 13.5255107,19.8931105 L13.8004288,19.7219823 L13.6282195,19.45754 Z M20,10 C16.9624339,10 14.5,12.4624339 14.5,15.5 C14.5,17.5946777 15.6709748,19.4158597 17.3943426,20.342859 C13.1349864,21.4892795 10,25.3785321 10,30 L30,30 L29.9961582,29.7200952 C29.8725407,25.2221042 26.7787405,21.4660588 22.605969,20.3446526 C24.3290252,19.4158597 25.5,17.5946777 25.5,15.5 C25.5,12.4624339 23.0375661,10 20,10 Z" id="Path" fill="#384156" fill-rule="nonzero"></path>
    </g>
</svg>