<?xml version="1.0" encoding="UTF-8"?>
<svg width="24px" height="24px" viewBox="0 0 24 24" version="1.1" xmlns="http://www.w3.org/2000/svg" xmlns:xlink="http://www.w3.org/1999/xlink">
    <!-- Generator: Sketch 58 (84663) - https://sketch.com -->
    <title>device-id-drone</title>
    <desc>Created with Sketch.</desc>
    <g id="device-id-drone" stroke="none" stroke-width="1" fill="none" fill-rule="evenodd">
        <g id="Icon-/-Device-/-Kind-/-Drone" fill="#333333">
            <path d="M9.6,7.2 L9.6,8.4 L4.799,8.4 L4.799,9.6 L6,9.6 L6,10.8 L7.199,10.8 L7.2,9.6 L16.8,9.6 L16.8,10.8 L18,10.8 L18,9.6 L19.199,9.6 L19.199,8.4 L14.4,8.4 L14.4,7.2 L24,7.2 L24,8.4 L20.399,8.4 L20.399,9.6 L21.6,9.6 L21.6,12.4 C21.6,13.5045695 20.7045695,14.4 19.6,14.4 L18,14.4 L18,12.6 L16.8,12.6 L16.8,14.6 C16.8,15.1522847 16.3522847,15.6 15.8,15.6 L14.4,15.6 C14.4,16.9254834 13.3254834,18 12,18 C10.6745166,18 9.6,16.9254834 9.6,15.6 L8.2,15.6 C7.64771525,15.6 7.2,15.1522847 7.2,14.6 L7.199,12.6 L6,12.6 L6,14.4 L4.4,14.4 C3.2954305,14.4 2.4,13.5045695 2.4,12.4 L2.4,9.6 L3.599,9.6 L3.599,8.4 L0,8.4 L0,7.2 L9.6,7.2 Z" id="Combined-Shape"></path>
        </g>
    </g>
</svg>