<?xml version="1.0" encoding="UTF-8"?>
<svg width="20px" height="20px" viewBox="0 0 20 20" version="1.1" xmlns="http://www.w3.org/2000/svg" xmlns:xlink="http://www.w3.org/1999/xlink">
    <!-- Generator: Sketch 58 (84663) - https://sketch.com -->
    <title>device-window-settings</title>
    <desc>Created with Sketch.</desc>
    <g id="device-window-settings" stroke="none" stroke-width="1" fill="none" fill-rule="evenodd">
        <g id="Icon-/-Device-/-Interface-/-Settings" fill="#333333" fill-rule="nonzero">
            <path d="M11.5,2 C11.7761424,2 12,2.22385763 12,2.5 L12.00037,4.34154222 C12.7023577,4.58971132 13.3443781,4.96481224 13.8988526,5.43926655 L15.4951905,4.51794919 C15.7343368,4.379878 16.040132,4.46181558 16.1782032,4.70096189 L17.6782032,7.29903811 C17.8162744,7.53818442 17.7343368,7.84397962 17.4951905,7.98205081 L15.8999664,8.90311357 C15.9656637,9.25873918 16,9.62535975 16,10 C16,10.3746402 15.9656637,10.7412608 15.8999664,11.0968864 L17.4951905,12.0179492 C17.7343368,12.1560204 17.8162744,12.4618156 17.6782032,12.7009619 L16.1782032,15.2990381 C16.040132,15.5381844 15.7343368,15.620122 15.4951905,15.4820508 L13.8988526,14.5607334 C13.3443781,15.0351878 12.7023577,15.4102887 12.00037,15.6584578 L12,17.5 C12,17.7454599 11.8231248,17.9496084 11.5898756,17.9919443 L11.5,18 L8.5,18 C8.25454011,18 8.05039163,17.8231248 8.00805567,17.5898756 L8,17.5 L7.99962995,15.6584578 C7.29764226,15.4102887 6.65562193,15.0351878 6.10114737,14.5607334 L4.50480947,15.4820508 C4.29223497,15.6047808 4.02699962,15.5536766 3.873711,15.3728449 L3.82179677,15.2990381 L2.32179677,12.7009619 C2.19906683,12.4883874 2.25017097,12.223152 2.43100273,12.0698634 L2.50480947,12.0179492 L4.10003358,11.0968864 C4.03433629,10.7412608 4,10.3746402 4,10 C4,9.62535975 4.03433629,9.25873918 4.10003358,8.90311357 L2.50480947,7.98205081 C2.26566316,7.84397962 2.18372558,7.53818442 2.32179677,7.29903811 L2.32179677,7.29903811 L3.82179677,4.70096189 C3.95986796,4.46181558 4.26566316,4.379878 4.50480947,4.51794919 L4.50480947,4.51794919 L6.10114737,5.43926655 C6.65562193,4.96481224 7.29764226,4.58971132 7.99962995,4.34154222 L8,2.5 C8,2.22385763 8.22385763,2 8.5,2 L11.5,2 Z M10,6 C7.790861,6 6,7.790861 6,10 C6,12.209139 7.790861,14 10,14 C12.209139,14 14,12.209139 14,10 C14,7.790861 12.209139,6 10,6 Z" id="Combined-Shape"></path>
        </g>
    </g>
</svg>