<?xml version="1.0" encoding="UTF-8"?>
<svg width="24px" height="24px" viewBox="0 0 24 24" version="1.1" xmlns="http://www.w3.org/2000/svg" xmlns:xlink="http://www.w3.org/1999/xlink">
    <!-- Generator: Sketch 58 (84663) - https://sketch.com -->
    <title>video-info-controlsignal-med</title>
    <desc>Created with Sketch.</desc>
    <g id="video-info-controlsignal-med" stroke="none" stroke-width="1" fill="none" fill-rule="evenodd">
        <g id="Icon-/-Device-/-Video-/-Info-/-Control-Signal-/-Med" fill="#FFFFFF">
            <g id="Video---Info---Control-Signal---Good" transform="translate(1.200000, 2.400000)">
                <path d="M21.6,7.2 L21.6,18 L19.2,18 L19.2,9 L21.6,7.2 Z M16.8,10.8 L16.8,18 L14.4,18 L14.4,12.6 L16.8,10.8 Z M12,14.4 L12,18 L7.2,18 L12,14.4 Z M11.4,0 C11.7313708,0 12,0.26862915 12,0.6 L11.9999912,6 C12.6619527,6 13.1994447,6.53715566 13.1999908,7.1989905 L14.4,7.2 C15.6702549,7.2 16.7100212,8.18683903 16.7944631,9.43568127 L16.8,9.6 L15.6,9.6 C15.6,8.97867966 15.1278003,8.46764746 14.522693,8.40619546 L14.4,8.4 L13.199,8.399 L13.1999912,8.4 L9.59999118,8.4 L9.599,8.399 L7.2,8.399 L7.20000441,8.4 L3.60000441,8.4 L3.6,8.399 L3,8.4 C2.05559308,8.4 1.28105931,9.12731342 1.20596695,10.052372 L1.2,10.2 L1.2,15 C1.2,15.9444069 1.92731342,16.7189407 2.85237201,16.7940331 L3,16.8 L4.8,16.8 L4.8,18 L3,18 C1.40231912,18 0.0963391206,16.75108 0.00509269341,15.1762728 L5.32907052e-15,15 L5.32907052e-15,10.2 C5.32907052e-15,8.60231912 1.24891996,7.29633912 2.82372721,7.20509269 L3,7.2 L3.6,7.199 L3.60620475,7.07738009 C3.66770386,6.47258962 4.17910001,6 4.80000441,6 L4.80001322,0.6 C4.80001322,0.301766235 5.01760284,0.054353247 5.30269011,0.00785298705 L5.40001322,0 C5.73138407,0 6.00001322,0.26862915 6.00001322,0.6 L6.00000441,6 C6.6619659,6 7.19945793,6.53715566 7.20000399,7.1989905 L9.599,7.198 L9.60619152,7.07738009 C9.66769063,6.47258962 10.1790868,6 10.7999912,6 L10.8,0.6 C10.8,0.301766235 11.0175896,0.054353247 11.3026769,0.00785298705 L11.4,0 Z M5.4,11.4 C6.06229803,11.4 6.6,11.937702 6.6,12.6 C6.6,13.262298 6.06229803,13.8 5.4,13.8 C4.73770197,13.8 4.2,13.262298 4.2,12.6 C4.2,11.937702 4.73770197,11.4 5.4,11.4 Z M11.4,11.4 C11.8239922,11.4 12.1969208,11.6203697 12.4103989,11.952721 L10.446064,13.327755 C10.2917233,13.1258274 10.2,12.8735413 10.2,12.6 C10.2,11.9377018 10.7377018,11.4 11.4,11.4 Z" id="Combined-Shape" opacity="0.25"></path>
                <path d="M16.8,10.8 L16.8,18 L14.4,18 L14.4,12.6 L16.8,10.8 Z M12,14.4 L12,18 L7.2,18 L12,14.4 Z M11.4,0 C11.7313708,0 12,0.26862915 12,0.6 L11.9999912,6 C12.6619527,6 13.1994447,6.53715566 13.1999908,7.1989905 L14.4,7.2 C15.6702549,7.2 16.7100212,8.18683903 16.7944631,9.43568127 L16.8,9.6 L15.6,9.6 C15.6,8.97867966 15.1278003,8.46764746 14.522693,8.40619546 L14.4,8.4 L13.199,8.399 L13.1999912,8.4 L9.59999118,8.4 L9.599,8.399 L7.2,8.399 L7.20000441,8.4 L3.60000441,8.4 L3.6,8.399 L3,8.4 C2.05559308,8.4 1.28105931,9.12731342 1.20596695,10.052372 L1.2,10.2 L1.2,15 C1.2,15.9444069 1.92731342,16.7189407 2.85237201,16.7940331 L3,16.8 L4.8,16.8 L4.8,18 L3,18 C1.40231912,18 0.0963391206,16.75108 0.00509269341,15.1762728 L5.32907052e-15,15 L5.32907052e-15,10.2 C5.32907052e-15,8.60231912 1.24891996,7.29633912 2.82372721,7.20509269 L3,7.2 L3.6,7.199 L3.60620475,7.07738009 C3.66770386,6.47258962 4.17910001,6 4.80000441,6 L4.80001322,0.6 C4.80001322,0.301766235 5.01760284,0.054353247 5.30269011,0.00785298705 L5.40001322,0 C5.73138407,0 6.00001322,0.26862915 6.00001322,0.6 L6.00000441,6 C6.6619659,6 7.19945793,6.53715566 7.20000399,7.1989905 L9.599,7.198 L9.60619152,7.07738009 C9.66769063,6.47258962 10.1790868,6 10.7999912,6 L10.8,0.6 C10.8,0.301766235 11.0175896,0.054353247 11.3026769,0.00785298705 L11.4,0 Z M5.4,11.4 C6.06229803,11.4 6.6,11.937702 6.6,12.6 C6.6,13.262298 6.06229803,13.8 5.4,13.8 C4.73770197,13.8 4.2,13.262298 4.2,12.6 C4.2,11.937702 4.73770197,11.4 5.4,11.4 Z M11.4,11.4 C11.8239922,11.4 12.1969208,11.6203697 12.4103989,11.952721 L10.446064,13.327755 C10.2917233,13.1258274 10.2,12.8735413 10.2,12.6 C10.2,11.9377018 10.7377018,11.4 11.4,11.4 Z" id="Combined-Shape-Copy"></path>
            </g>
        </g>
    </g>
</svg>