<?xml version="1.0" encoding="UTF-8"?>
<svg width="24px" height="24px" viewBox="0 0 24 24" version="1.1" xmlns="http://www.w3.org/2000/svg" xmlns:xlink="http://www.w3.org/1999/xlink">
    <!-- Generator: Sketch 58 (84663) - https://sketch.com -->
    <title>video-info-satelite</title>
    <desc>Created with Sketch.</desc>
    <g id="video-info-satelite" stroke="none" stroke-width="1" fill="none" fill-rule="evenodd">
        <g id="Icon-/-Device-/-Video-/-Info-/-Satellite" fill="#FFFFFF">
            <path d="M8.4,16.4007143 L9.6,16.4007143 C9.6,19.0516811 11.7490332,21.2007143 14.4,21.2007143 C16.979319,21.2007143 19.0834694,19.1662752 19.1953232,16.6145251 L19.2,16.4007143 L20.4,16.4007143 C20.4,19.7144228 17.7137085,22.4007143 14.4,22.4007143 C11.1616031,22.4007143 8.52242824,19.8351394 8.40413847,16.6256525 L8.4,16.4007143 L9.6,16.4007143 Z M12,16.4007143 C12,17.7261977 13.0745166,18.8007143 14.4,18.8007143 C15.6702549,18.8007143 16.7100212,17.8138752 16.7944631,16.565033 L16.8,16.4007143 L18,16.4007143 C18,18.3889394 16.3882251,20.0007143 14.4,20.0007143 C12.4759112,20.0007143 10.9043772,18.4912477 10.8049901,16.5919065 L10.8,16.4007143 L12,16.4007143 Z M15.6,16.4007143 C15.6,17.063456 15.0627417,17.6007143 14.4,17.6007143 C13.7786797,17.6007143 13.2676475,17.1285146 13.2061955,16.5234073 L13.2,16.4007143 L15.6,16.4007143 Z M14.4,6.80071427 C14.7313708,6.80071427 15,7.06934342 15,7.40071427 L15,9.20071427 L16.8,9.20071427 L16.8,10.3997143 L18,10.3997143 L18,8.00071427 L26.4,8.00071427 L26.4,14.0007143 L18,14.0007143 L18,11.5997143 L16.8,11.5997143 L16.8,14.0007143 L15.6,15.2007143 L13.2,15.2007143 L12,14.0007143 L12,11.5997143 L10.8,11.5997143 L10.8,14.0007143 L2.4,14.0007143 L2.4,8.00071427 L10.8,8.00071427 L10.8,10.3997143 L12,10.3997143 L12,9.20071427 L13.8,9.20071427 L13.8,7.40071427 C13.8,7.06934342 14.0686292,6.80071427 14.4,6.80071427 Z M9.6,9.20071427 L3.6,9.20071427 L3.6,12.8007143 L9.6,12.8007143 L9.6,9.20071427 Z M25.2,9.20071427 L19.2,9.20071427 L19.2,12.8007143 L25.2,12.8007143 L25.2,9.20071427 Z" id="Combined-Shape" transform="translate(14.400000, 14.600714) rotate(-45.000000) translate(-14.400000, -14.600714) "></path>
        </g>
    </g>
</svg>