<?xml version="1.0" encoding="UTF-8"?>
<svg width="24px" height="24px" viewBox="0 0 24 24" version="1.1" xmlns="http://www.w3.org/2000/svg" xmlns:xlink="http://www.w3.org/1999/xlink">
    <!-- Generator: Sketch 58 (84663) - https://sketch.com -->
    <title>video-info-fulscreen</title>
    <desc>Created with Sketch.</desc>
    <g id="video-info-fulscreen" stroke="none" stroke-width="1" fill="none" fill-rule="evenodd">
        <g id="Icon-/-Device-/-Video-/-Info-/-Fullscreen-/-Open" fill="#FFFFFF">
            <rect id="Rectangle" x="14.4" y="2.4" width="7.2" height="2.4"></rect>
            <rect id="Rectangle-Copy-5" x="14.4" y="19.2" width="7.2" height="2.4"></rect>
            <rect id="Rectangle-Copy-3" x="2.4" y="2.4" width="7.2" height="2.4"></rect>
            <rect id="Rectangle-Copy-6" x="2.4" y="19.2" width="7.2" height="2.4"></rect>
            <rect id="Rectangle-Copy-2" transform="translate(20.400000, 6.000000) rotate(-90.000000) translate(-20.400000, -6.000000) " x="16.8" y="4.8" width="7.2" height="2.4"></rect>
            <polygon id="Rectangle-Copy-7" transform="translate(20.400000, 18.000000) rotate(-90.000000) translate(-20.400000, -18.000000) " points="16.8 16.8 24 16.8 24 19.2 16.8 19.2"></polygon>
            <rect id="Rectangle-Copy-4" transform="translate(3.600000, 6.000000) rotate(-90.000000) translate(-3.600000, -6.000000) " x="-4.4408921e-16" y="4.8" width="7.2" height="2.4"></rect>
            <polygon id="Rectangle-Copy-8" transform="translate(3.600000, 18.000000) rotate(-90.000000) translate(-3.600000, -18.000000) " points="-4.4408921e-16 16.8 7.2 16.8 7.2 19.2 -4.4408921e-16 19.2"></polygon>
        </g>
    </g>
</svg>