<?xml version="1.0" encoding="UTF-8"?>
<svg width="60px" height="60px" viewBox="0 0 60 60" version="1.1" xmlns="http://www.w3.org/2000/svg" xmlns:xlink="http://www.w3.org/1999/xlink">
    <!-- Generator: Sketch 58 (84663) - https://sketch.com -->
    <title>video-btn-camera</title>
    <desc>Created with Sketch.</desc>
    <g id="video-btn-camera" stroke="none" stroke-width="1" fill="none" fill-rule="evenodd">
        <g id="Icon-/-Device-/-Video-/-Btn-/-Camera">
            <circle id="Oval" stroke="#FFFFFF" fill-opacity="0.5" fill="#FFFFFF" opacity="0.3" cx="30" cy="30" r="29.5"></circle>
            <g id="Video---Btn---Camera" transform="translate(12.000000, 16.000000)">
                <path d="M0,7 C0,5.89543152 0.895430565,5 2,5 L9.18019485,5 C9.65687752,5 10.0672913,4.66353989 10.160778,4.19611549 L10.6784477,1.60776711 C10.8654175,0.672920227 11.686245,0 12.6396065,0 L23.3603897,0 C24.313755,0 25.1345825,0.672920227 25.3215561,1.60776711 L25.8392258,4.19611549 C25.9327087,4.66353989 26.3431244,5 26.8198013,5 L34,5 C35.1045685,5 36,5.89543152 36,7 L36,26 C36,27.1045685 35.1045685,28 34,28 L2,28 C0.895430565,28 0,27.1045685 0,26 L0,7 Z M30,9 C30,7.89616966 29.1038284,7 28,7 C26.8961716,7 26,7.89616966 26,9 C26,10.1038303 26.8961716,11 28,11 C29.1038284,11 30,10.1038303 30,9 Z M18,8 C22.4153214,8 26,11.5846806 26,16 C26,20.4153214 22.4153214,24 18,24 C13.5846786,24 10,20.4153214 10,16 C10,11.5846806 13.5846806,8 18,8 Z" id="Shape" fill="#FFFFFF"></path>
                <circle id="Oval" fill="#FF3366" fill-rule="nonzero" cx="18" cy="16" r="5"></circle>
            </g>
        </g>
    </g>
</svg>