<?xml version="1.0" encoding="UTF-8"?>
<svg width="24px" height="24px" viewBox="0 0 24 24" version="1.1" xmlns="http://www.w3.org/2000/svg" xmlns:xlink="http://www.w3.org/1999/xlink">
    <!-- Generator: Sketch 58 (84663) - https://sketch.com -->
    <title>video-info-controlsignal-good</title>
    <desc>Created with Sketch.</desc>
    <g id="video-info-controlsignal-good" stroke="none" stroke-width="1" fill="none" fill-rule="evenodd">
        <g id="Icon-/-Device-/-Video-/-Info-/-Control-Signal-/-Good" fill="#FFFFFF">
            <g id="Video---Info---Control-Signal---Good" transform="translate(1.200000, 2.400000)">
                <path d="M19.2,18 L19.2,9 L21.6,7.2 L21.6,18 L19.2,18 Z M14.4,18 L14.4,12.6 L16.8,10.8 L16.8,18 L14.4,18 Z M7.2,18 L12,14.4 L12,18 L7.2,18 Z" id="Shape"></path>
                <path d="M4.8,16.8 L3,16.8 C2.00588745,16.8 1.2,15.9941125 1.2,15 L1.2,10.2 C1.2,9.20588745 2.00588745,8.4 3,8.4 L14.4,8.4 C15.0627417,8.4 15.6,8.9372583 15.6,9.6 L16.8,9.6 C16.8,8.2745166 15.7254834,7.2 14.4,7.2 L3,7.2 C1.34314575,7.2 5.32907052e-15,8.54314575 5.32907052e-15,10.2 L5.32907052e-15,15 C5.32907052e-15,16.6568542 1.34314575,18 3,18 L4.8,18 L4.8,16.8 Z" id="Path" fill-rule="nonzero"></path>
                <path d="M4.80000441,6 L6.00000441,6 C6.66230244,6 7.20000441,6.53770197 7.20000441,7.2 L7.20000441,8.4 L3.60000441,8.4 L3.60000441,7.2 C3.60000441,6.53770197 4.13770638,6 4.80000441,6 Z" id="Path"></path>
                <path d="M10.7999912,6 L11.9999912,6 C12.6622892,6 13.1999912,6.53770197 13.1999912,7.2 L13.1999912,8.4 L9.59999118,8.4 L9.59999118,7.2 C9.59999118,6.53770197 10.1376932,6 10.7999912,6 Z" id="Path"></path>
                <path d="M4.80001322,0.6 C4.80001322,0.26862915 5.06864237,0 5.40001322,0 L5.40001322,0 C5.73138407,0 6.00001322,0.26862915 6.00001322,0.6 L6.00001322,7.2 L4.80001322,7.2 L4.80001322,0.6 Z" id="Path"></path>
                <path d="M10.8,0.6 C10.8,0.26862915 11.0686292,0 11.4,0 L11.4,0 C11.7313708,0 12,0.26862915 12,0.6 L12,7.2 L10.8,7.2 L10.8,0.6 Z" id="Path"></path>
                <path d="M6.6,12.6 C6.6,13.262298 6.06229803,13.8 5.4,13.8 C4.73770197,13.8 4.2,13.262298 4.2,12.6 C4.2,11.937702 4.73770197,11.4 5.4,11.4 C6.06229803,11.4 6.6,11.937702 6.6,12.6 Z" id="Path"></path>
                <path d="M10.446064,13.327755 C10.2917233,13.1258274 10.2,12.8735413 10.2,12.6 C10.2,11.9377018 10.7377018,11.4 11.4,11.4 C11.8239922,11.4 12.1969208,11.6203697 12.4103989,11.952721 L10.446064,13.327755 Z" id="Path"></path>
            </g>
        </g>
    </g>
</svg>