<?xml version="1.0" encoding="UTF-8"?>
<svg width="60px" height="60px" viewBox="0 0 60 60" version="1.1" xmlns="http://www.w3.org/2000/svg" xmlns:xlink="http://www.w3.org/1999/xlink">
    <!-- Generator: Sketch 58 (84663) - https://sketch.com -->
    <title>video-btn-record</title>
    <desc>Created with Sketch.</desc>
    <g id="video-btn-record" stroke="none" stroke-width="1" fill="none" fill-rule="evenodd">
        <g id="Icon-/-Device-/-Video-/-Btn-/-Record">
            <circle id="Oval" stroke="#FFFFFF" stroke-width="1" fill-opacity="0.5" fill="#FFFFFF" opacity="0.3" cx="30" cy="30" r="29.5"></circle>
            <path d="M30,5 C43.8071187,5 55,16.1928813 55,30 C55,43.8071187 43.8071187,55 30,55 C16.1928813,55 5,43.8071187 5,30 C5,16.1928813 16.1928813,5 30,5 Z M30,18 C23.372583,18 18,23.372583 18,30 C18,36.627417 23.372583,42 30,42 C36.627417,42 42,36.627417 42,30 C42,23.372583 36.627417,18 30,18 Z" id="Combined-Shape" fill="#FFFFFF"></path>
            <circle id="Oval" fill="#FF3366" cx="30" cy="30" r="8"></circle>
        </g>
    </g>
</svg>