<?xml version="1.0" encoding="UTF-8"?>
<svg width="24px" height="24px" viewBox="0 0 24 24" version="1.1" xmlns="http://www.w3.org/2000/svg" xmlns:xlink="http://www.w3.org/1999/xlink">
    <!-- Generator: Sketch 58 (84663) - https://sketch.com -->
    <title>video-info-closefulscreen</title>
    <desc>Created with Sketch.</desc>
    <g id="video-info-closefulscreen" stroke="none" stroke-width="1" fill="none" fill-rule="evenodd">
        <g id="Icon-/-Device-/-Video-/-Info-/-Fullscreen-/-Close" fill="#FFFFFF">
            <rect id="Rectangle" x="14.4" y="7.2" width="7.2" height="2.4"></rect>
            <rect id="Rectangle-Copy-5" x="14.4" y="14.4" width="7.2" height="2.4"></rect>
            <rect id="Rectangle-Copy-3" x="2.4" y="7.2" width="7.2" height="2.4"></rect>
            <rect id="Rectangle-Copy-6" x="2.4" y="14.4" width="7.2" height="2.4"></rect>
            <polygon id="Rectangle-Copy-2" transform="translate(15.600000, 6.000000) rotate(-90.000000) translate(-15.600000, -6.000000) " points="12 4.8 19.2 4.8 19.2 7.2 12 7.2"></polygon>
            <polygon id="Rectangle-Copy-7" transform="translate(15.600000, 18.000000) rotate(-90.000000) translate(-15.600000, -18.000000) " points="12 16.8 19.2 16.8 19.2 19.2 12 19.2"></polygon>
            <rect id="Rectangle-Copy-4" transform="translate(8.400000, 6.000000) rotate(-90.000000) translate(-8.400000, -6.000000) " x="4.8" y="4.8" width="7.2" height="2.4"></rect>
            <polygon id="Rectangle-Copy-8" transform="translate(8.400000, 18.000000) rotate(-90.000000) translate(-8.400000, -18.000000) " points="4.8 16.8 12 16.8 12 19.2 4.8 19.2"></polygon>
        </g>
    </g>
</svg>